<svg width="1200" height="900" viewBox="0 0 1200 900" fill="none" xmlns="http://www.w3.org/2000/svg">
  <rect width="1200" height="900" rx="48" fill="#F6F4E8"/>
  <rect x="68" y="68" width="1064" height="764" rx="40" fill="#FFFFFF" fill-opacity="0.72"/>
  <circle cx="952" cy="214" r="120" fill="#C0E1D2" fill-opacity="0.5"/>
  <circle cx="258" cy="692" r="120" fill="#DC9B9B" fill-opacity="0.26"/>
  <rect x="126" y="138" width="280" height="530" rx="36" fill="#FFFFFF" fill-opacity="0.82"/>
  <rect x="126" y="138" width="280" height="56" rx="36" fill="#21312B"/>
  <rect x="172" y="240" width="112" height="18" rx="9" fill="#21312B" fill-opacity="0.16"/>
  <rect x="172" y="280" width="78" height="14" rx="7" fill="#DC9B9B" fill-opacity="0.42"/>
  <rect x="172" y="344" width="188" height="16" rx="8" fill="#E5EEE4"/>
  <rect x="172" y="382" width="188" height="16" rx="8" fill="#E5EEE4"/>
  <rect x="172" y="420" width="188" height="16" rx="8" fill="#E5EEE4"/>
  <rect x="172" y="458" width="188" height="16" rx="8" fill="#E5EEE4"/>
  <rect x="172" y="544" width="188" height="68" rx="24" fill="#C0E1D2"/>
  <rect x="460" y="192" width="280" height="586" rx="36" fill="#21312B"/>
  <rect x="460" y="192" width="280" height="74" rx="36" fill="#C0E1D2"/>
  <rect x="512" y="322" width="106" height="20" rx="10" fill="#FFFFFF" fill-opacity="0.26"/>
  <rect x="512" y="368" width="176" height="18" rx="9" fill="#FFFFFF" fill-opacity="0.2"/>
  <rect x="512" y="408" width="176" height="18" rx="9" fill="#FFFFFF" fill-opacity="0.2"/>
  <rect x="512" y="448" width="176" height="18" rx="9" fill="#FFFFFF" fill-opacity="0.2"/>
  <rect x="512" y="488" width="176" height="18" rx="9" fill="#FFFFFF" fill-opacity="0.2"/>
  <rect x="512" y="560" width="176" height="92" rx="26" fill="#FFFFFF" fill-opacity="0.08"/>
  <rect x="794" y="246" width="280" height="432" rx="36" fill="#FFFFFF" fill-opacity="0.82"/>
  <rect x="838" y="300" width="112" height="18" rx="9" fill="#21312B" fill-opacity="0.16"/>
  <rect x="838" y="338" width="146" height="56" rx="22" fill="#E5EEE4"/>
  <rect x="838" y="430" width="186" height="16" rx="8" fill="#E5EEE4"/>
  <rect x="838" y="466" width="186" height="16" rx="8" fill="#E5EEE4"/>
  <rect x="838" y="502" width="186" height="16" rx="8" fill="#E5EEE4"/>
  <rect x="838" y="558" width="186" height="68" rx="24" fill="#F6F4E8"/>
</svg>
